<?xml version="1.0" encoding="utf-8"?>
<!-- Generator: Adobe Illustrator 17.1.0, SVG Export Plug-In . SVG Version: 6.00 Build 0)  -->
<!DOCTYPE svg PUBLIC "-//W3C//DTD SVG 1.1//EN" "http://www.w3.org/Graphics/SVG/1.1/DTD/svg11.dtd">
<svg version="1.1" id="Layer_1" xmlns="http://www.w3.org/2000/svg" xmlns:xlink="http://www.w3.org/1999/xlink" x="0px" y="0px"
	 viewBox="0 0 595.3 84.5" enable-background="new 0 0 595.3 84.5" xml:space="preserve">
<g>
	<path fill="#33A3C4" d="M265.1,49.6c-2.5-1.1-4.6-2.5-6.4-4.4c-1.8-1.8-3.3-4-4.4-6.4c-1.1-2.5-1.6-5.1-1.6-8c0-2.9,0.5-5.5,1.6-8
		c1.1-2.5,2.5-4.6,4.4-6.4c1.8-1.8,4-3.3,6.4-4.4c2.5-1.1,5.1-1.6,8-1.6h78.5c2,0,3.8,0.7,5.2,2.1c1.4,1.4,2.1,3.2,2.1,5.2
		c0,2-0.7,3.8-2.1,5.2c-1.4,1.4-3.2,2.1-5.2,2.1h-78.8c-1.5,0-2.9,0.5-4.1,1.6c-1.2,1.1-1.8,2.4-1.8,4.1c0,1.5,0.6,2.9,1.8,4
		c1.2,1.1,2.5,1.7,4.1,1.7H343c2.9,0,5.5,0.5,8.1,1.6c2.5,1.1,4.7,2.5,6.5,4.4c1.8,1.8,3.3,4,4.4,6.5s1.6,5.2,1.6,8.1
		c0,2.9-0.5,5.5-1.6,8c-1.1,2.5-2.5,4.6-4.4,6.4c-1.8,1.8-4,3.3-6.5,4.3c-2.5,1-5.2,1.5-8.1,1.5h-78.3c-2,0-3.8-0.7-5.2-2.1
		c-1.4-1.4-2.1-3.2-2.1-5.2c0-2,0.7-3.8,2.1-5.2c1.4-1.4,3.2-2.1,5.2-2.1h79c1.5,0,2.9-0.5,4-1.6s1.7-2.4,1.7-3.9
		c0-1.6-0.6-3-1.7-4.1c-1.1-1.1-2.5-1.7-4-1.7H273C270.2,51.2,267.5,50.6,265.1,49.6z"/>
	<path fill="#33A3C4" d="M172.8,60.7c0-2.7,0.9-4.9,2.8-6.8c1.8-1.8,4.1-2.8,6.8-2.8c2.7,0,4.9,0.9,6.8,2.8c1.8,1.8,2.8,4.1,2.8,6.8
		s-0.9,4.9-2.8,6.8c-1.8,1.8-4.1,2.8-6.8,2.8c-2.7,0-4.9-0.9-6.8-2.8C173.7,65.6,172.8,63.3,172.8,60.7z"/>
	<path fill="#33A3C4" d="M265.1,49.6c-2.5-1.1-4.6-2.5-6.4-4.4c-1.8-1.8-3.3-4-4.4-6.4c-1.1-2.5-1.6-5.1-1.6-8c0-2.9,0.5-5.5,1.6-8
		c1.1-2.5,2.5-4.6,4.4-6.4c1.8-1.8,4-3.3,6.4-4.4c2.5-1.1,5.1-1.6,8-1.6h78.5c2,0,3.8,0.7,5.2,2.1c1.4,1.4,2.1,3.2,2.1,5.2
		c0,2-0.7,3.8-2.1,5.2c-1.4,1.4-3.2,2.1-5.2,2.1h-78.8c-1.5,0-2.9,0.5-4.1,1.6c-1.2,1.1-1.8,2.4-1.8,4.1c0,1.5,0.6,2.9,1.8,4
		c1.2,1.1,2.5,1.7,4.1,1.7H343c2.9,0,5.5,0.5,8.1,1.6c2.5,1.1,4.7,2.5,6.5,4.4c1.8,1.8,3.3,4,4.4,6.5s1.6,5.2,1.6,8.1
		c0,2.9-0.5,5.5-1.6,8c-1.1,2.5-2.5,4.6-4.4,6.4c-1.8,1.8-4,3.3-6.5,4.3c-2.5,1-5.2,1.5-8.1,1.5h-78.3c-2,0-3.8-0.7-5.2-2.1
		c-1.4-1.4-2.1-3.2-2.1-5.2c0-2,0.7-3.8,2.1-5.2c1.4-1.4,3.2-2.1,5.2-2.1h79c1.5,0,2.9-0.5,4-1.6s1.7-2.4,1.7-3.9
		c0-1.6-0.6-3-1.7-4.1c-1.1-1.1-2.5-1.7-4-1.7H273C270.2,51.2,267.5,50.6,265.1,49.6z"/>
	<path fill="#33A3C4" d="M476.1,10.3c2,0,3.8,0.7,5.2,2.1c1.4,1.4,2.1,3.2,2.1,5.2c0,1.9-0.7,3.6-2,5c-1.3,1.4-2.9,2.2-4.8,2.4
		h-23.5c-3.1,0.2-5.6,0.9-7.6,2.2c-2,1.3-3.6,2.8-4.7,4.7c-1.1,1.8-1.9,3.8-2.3,6c-0.4,2.1-0.6,4.1-0.6,5.8v26.1
		c0,2-0.7,3.8-2.1,5.2s-3.2,2.1-5.2,2.1c-2,0-3.8-0.7-5.2-2.1c-1.4-1.4-2.1-3.2-2.1-5.2V43.8c0-3.2,0.4-6.4,1.2-9.6
		c0.8-3.2,2-6.3,3.7-9.1h-43c-2,0-3.8-0.7-5.2-2.1c-1.4-1.4-2.1-3.2-2.1-5.2c0-2,0.7-3.8,2.1-5.2c1.4-1.4,3.2-2.1,5.2-2.1H476.1z"/>
	<path fill="#C5D72D" d="M140.4,74.5c-1.5,1.8-3.4,2.8-5.7,2.8c-2,0-3.8-0.7-5.2-2.1c-1.4-1.4-2.1-3.2-2.1-5.2
		c0-1.8,0.5-3.3,1.5-4.4l37.3-50.2c1.7-2.4,4-4.3,6.9-5.8c2.9-1.5,5.9-2.2,9.2-2.2c3.1,0,6,0.7,8.8,2c2.8,1.3,5,3.2,6.8,5.5
		l37.3,49.9c0.6,0.7,1.1,1.5,1.5,2.4c0.4,0.9,0.6,1.8,0.6,2.8c0,2-0.7,3.8-2.1,5.2c-1.4,1.4-3.2,2.1-5.2,2.1c-2.5,0-4.4-1-5.8-2.9
		l-35.8-47.7c-0.7-0.8-1.6-1.7-2.7-2.7c-1.1-1-2.2-1.5-3.3-1.5s-2.2,0.5-3.3,1.5c-1.1,1-1.9,1.9-2.5,2.7L140.4,74.5z"/>
	<g>
		<path fill="#33A3C4" d="M523.7,60.7c0-2.7,0.9-4.9,2.8-6.8c1.8-1.8,4.1-2.8,6.8-2.8s4.9,0.9,6.8,2.8c1.8,1.8,2.8,4.1,2.8,6.8
			s-0.9,4.9-2.8,6.8c-1.8,1.8-4.1,2.8-6.8,2.8s-4.9-0.9-6.8-2.8C524.6,65.6,523.7,63.3,523.7,60.7z"/>
		<path fill="#C5D72D" d="M491.3,74.5c-1.5,1.8-3.4,2.8-5.7,2.8c-2,0-3.8-0.7-5.2-2.1c-1.4-1.4-2.1-3.2-2.1-5.2
			c0-1.8,0.5-3.3,1.5-4.4l37.3-50.2c1.7-2.4,4-4.3,6.9-5.8c2.9-1.5,5.9-2.2,9.2-2.2c3.1,0,6,0.7,8.8,2c2.8,1.3,5,3.2,6.8,5.5
			L586,64.7c0.6,0.7,1.1,1.5,1.5,2.4c0.4,0.9,0.6,1.8,0.6,2.8c0,2-0.7,3.8-2.1,5.2c-1.4,1.4-3.2,2.1-5.2,2.1c-2.5,0-4.4-1-5.8-2.9
			l-35.8-47.7c-0.7-0.8-1.6-1.7-2.7-2.7c-1.1-1-2.2-1.5-3.3-1.5s-2.2,0.5-3.3,1.5c-1.1,1-1.9,1.9-2.5,2.7L491.3,74.5z"/>
	</g>
	<path fill="#33A3C4" d="M128.5,12.5c-1.4-1.4-3.2-2.1-5.2-2.1h-88c-4.4,0-8.3,1-11.8,3.1c-3.5,2-6.4,4.7-8.9,7.9
		c-2.5,3.2-4.3,6.8-5.6,10.7C7.8,36,7.1,39.9,7.1,43.8V67v2.9v0.3c0-0.1,0-0.1,0-0.2c0,2,0.7,3.7,2.1,5.1c1.4,1.4,3.2,2.1,5.2,2.1
		c2,0,3.8-0.7,5.2-2.1c1.4-1.4,2.1-3.2,2.1-5.2v-0.8c0.1-1.8,0.4-3.8,0.8-5.8c0.5-2,1.3-4,2.5-5.8c1.2-1.8,2.9-3.2,5.1-4.4
		c2.1-1.1,4.9-1.7,8.3-1.7H94c2,0,3.8-0.7,5.2-2.1c1.4-1.4,2.1-3.2,2.1-5.2c0-2-0.7-3.8-2.1-5.2c-1.4-1.4-3.2-2.1-5.2-2.1H35.4
		c-4.4,0-8.3,1-11.8,3.1c-0.5,0.3-1,0.7-1.5,1c0.1-1.3,0.4-2.6,0.7-3.9c0.5-2,1.3-4,2.5-5.8c1.2-1.8,2.9-3.2,5.1-4.4
		c2.1-1.1,4.9-1.7,8.3-1.7h84.7c2,0,3.8-0.7,5.2-2.1c1.4-1.4,2.1-3.2,2.1-5.2C130.7,15.7,130,13.9,128.5,12.5z"/>
</g>
</svg>
